<svg xmlns="http://www.w3.org/2000/svg" xmlns:xlink="http://www.w3.org/1999/xlink" width="350" zoomAndPan="magnify" viewBox="0 0 262.5 74.999997" height="100" preserveAspectRatio="xMidYMid meet" version="1.0"><defs><clipPath id="536e17f87e"><path d="M 7.484375 8.753906 L 254.515625 8.753906 L 254.515625 66.394531 L 7.484375 66.394531 Z M 7.484375 8.753906 " clip-rule="nonzero"/></clipPath></defs><g clip-path="url(#536e17f87e)"><path fill="#65cf72" d="M 36.167969 8.792969 C 20.492188 8.792969 7.730469 21.585938 7.722656 37.3125 C 7.722656 42.335938 9.03125 47.242188 11.519531 51.566406 L 7.484375 66.347656 L 22.5625 62.382812 C 26.71875 64.652344 31.394531 65.847656 36.15625 65.851562 L 36.167969 65.851562 C 51.84375 65.851562 64.605469 53.058594 64.613281 37.332031 C 64.617188 29.710938 61.660156 22.542969 56.289062 17.15625 C 50.917969 11.769531 43.78125 8.796875 36.167969 8.792969 Z M 36.167969 61.039062 L 36.160156 61.039062 C 31.917969 61.039062 27.753906 59.894531 24.128906 57.734375 L 23.265625 57.21875 L 14.316406 59.574219 L 16.703125 50.828125 L 16.140625 49.929688 C 13.773438 46.15625 12.523438 41.792969 12.527344 37.3125 C 12.535156 24.242188 23.136719 13.609375 36.179688 13.609375 C 42.496094 13.609375 48.433594 16.082031 52.894531 20.5625 C 57.359375 25.042969 59.816406 30.996094 59.8125 37.332031 C 59.804688 50.402344 49.203125 61.039062 36.167969 61.039062 Z M 49.136719 43.285156 C 48.425781 42.925781 44.933594 41.203125 44.28125 40.964844 C 43.628906 40.730469 43.152344 40.609375 42.679688 41.324219 C 42.203125 42.039062 40.84375 43.640625 40.429688 44.117188 C 40.015625 44.597656 39.597656 44.652344 38.890625 44.296875 C 38.179688 43.9375 35.886719 43.1875 33.175781 40.757812 C 31.0625 38.867188 29.632812 36.535156 29.222656 35.820312 C 28.808594 35.105469 29.175781 34.722656 29.535156 34.367188 C 29.855469 34.046875 30.246094 33.535156 30.601562 33.117188 C 30.953125 32.703125 31.074219 32.40625 31.3125 31.925781 C 31.546875 31.453125 31.429688 31.035156 31.253906 30.675781 C 31.078125 30.320312 29.652344 26.8125 29.0625 25.382812 C 28.484375 23.996094 27.898438 24.179688 27.460938 24.160156 C 27.046875 24.140625 26.574219 24.132812 26.097656 24.132812 C 25.625 24.132812 24.855469 24.3125 24.203125 25.027344 C 23.550781 25.738281 21.714844 27.464844 21.714844 30.96875 C 21.714844 34.476562 24.265625 37.867188 24.617188 38.34375 C 24.976562 38.820312 29.632812 46.019531 36.757812 49.101562 C 38.457031 49.835938 39.777344 50.273438 40.8125 50.601562 C 42.515625 51.144531 44.0625 51.066406 45.289062 50.882812 C 46.65625 50.679688 49.496094 49.15625 50.085938 47.496094 C 50.675781 45.832031 50.675781 44.40625 50.496094 44.105469 C 50.320312 43.808594 49.84375 43.628906 49.136719 43.273438 Z M 99.460938 42.851562 L 99.382812 42.851562 L 94.667969 23.773438 L 88.984375 23.773438 L 84.191406 42.617188 L 84.117188 42.617188 L 79.75 23.773438 L 73.679688 23.773438 L 80.984375 51.457031 L 87.132812 51.457031 L 91.734375 32.609375 L 91.8125 32.609375 L 96.488281 51.457031 L 102.519531 51.457031 L 109.945312 23.773438 L 103.992188 23.773438 L 99.46875 42.851562 Z M 128.453125 33.136719 C 127.910156 32.425781 127.171875 31.871094 126.230469 31.46875 C 125.289062 31.070312 124.082031 30.871094 122.617188 30.871094 C 121.585938 30.871094 120.53125 31.136719 119.445312 31.664062 C 118.363281 32.195312 117.476562 33.042969 116.777344 34.203125 L 116.664062 34.203125 L 116.664062 23.773438 L 111.171875 23.773438 L 111.171875 51.457031 L 116.664062 51.457031 L 116.664062 40.949219 C 116.664062 38.90625 116.996094 37.441406 117.667969 36.546875 C 118.339844 35.660156 119.421875 35.210938 120.917969 35.210938 C 122.230469 35.210938 123.144531 35.617188 123.660156 36.433594 C 124.175781 37.246094 124.433594 38.480469 124.433594 40.132812 L 124.433594 51.457031 L 129.921875 51.457031 L 129.921875 39.125 C 129.921875 37.886719 129.8125 36.757812 129.59375 35.734375 C 129.375 34.71875 128.992188 33.847656 128.453125 33.140625 Z M 151.066406 46.996094 L 151.066406 36.570312 C 151.066406 35.351562 150.796875 34.375 150.25 33.640625 C 149.710938 32.902344 149.015625 32.328125 148.164062 31.914062 C 147.3125 31.5 146.371094 31.222656 145.339844 31.082031 C 144.3125 30.941406 143.292969 30.867188 142.289062 30.867188 C 141.183594 30.867188 140.082031 30.976562 138.984375 31.199219 C 137.890625 31.417969 136.90625 31.789062 136.027344 32.304688 C 135.152344 32.820312 134.425781 33.507812 133.863281 34.359375 C 133.296875 35.214844 132.972656 36.285156 132.898438 37.578125 L 138.386719 37.578125 C 138.488281 36.492188 138.851562 35.714844 139.46875 35.25 C 140.085938 34.785156 140.9375 34.554688 142.019531 34.554688 C 142.507812 34.554688 142.964844 34.585938 143.394531 34.648438 C 143.816406 34.714844 144.191406 34.839844 144.511719 35.035156 C 144.835938 35.230469 145.09375 35.503906 145.285156 35.851562 C 145.480469 36.203125 145.574219 36.675781 145.574219 37.265625 C 145.601562 37.835938 145.433594 38.265625 145.074219 38.566406 C 144.710938 38.867188 144.222656 39.089844 143.605469 39.246094 C 142.984375 39.398438 142.277344 39.515625 141.476562 39.59375 C 140.675781 39.671875 139.863281 39.777344 139.042969 39.90625 C 138.214844 40.035156 137.398438 40.207031 136.585938 40.425781 C 135.777344 40.644531 135.050781 40.976562 134.421875 41.414062 C 133.789062 41.855469 133.273438 42.441406 132.875 43.179688 C 132.476562 43.914062 132.273438 44.855469 132.273438 45.988281 C 132.273438 47.023438 132.449219 47.914062 132.792969 48.664062 C 133.140625 49.414062 133.625 50.03125 134.242188 50.523438 C 134.859375 51.019531 135.582031 51.378906 136.40625 51.609375 C 137.230469 51.84375 138.121094 51.960938 139.074219 51.960938 C 140.3125 51.960938 141.523438 51.777344 142.707031 51.417969 C 143.894531 51.054688 144.925781 50.421875 145.800781 49.515625 C 145.828125 49.851562 145.871094 50.183594 145.9375 50.503906 C 146 50.828125 146.085938 51.144531 146.1875 51.453125 L 151.753906 51.453125 C 151.496094 51.042969 151.3125 50.417969 151.210938 49.59375 C 151.105469 48.765625 151.054688 47.902344 151.054688 46.996094 Z M 145.574219 43.699219 C 145.574219 44.015625 145.542969 44.429688 145.480469 44.941406 C 145.414062 45.460938 145.242188 45.96875 144.957031 46.472656 C 144.675781 46.976562 144.234375 47.414062 143.644531 47.773438 C 143.054688 48.136719 142.214844 48.316406 141.132812 48.316406 C 140.695312 48.316406 140.269531 48.277344 139.855469 48.199219 C 139.441406 48.121094 139.082031 47.984375 138.773438 47.789062 C 138.460938 47.597656 138.21875 47.332031 138.039062 46.996094 C 137.859375 46.660156 137.765625 46.246094 137.765625 45.757812 C 137.765625 45.242188 137.855469 44.8125 138.039062 44.476562 C 138.21875 44.144531 138.457031 43.863281 138.753906 43.644531 C 139.050781 43.425781 139.398438 43.253906 139.796875 43.121094 C 140.195312 42.992188 140.601562 42.890625 141.015625 42.8125 C 141.453125 42.734375 141.890625 42.667969 142.332031 42.617188 C 142.773438 42.570312 143.1875 42.5 143.589844 42.425781 C 143.988281 42.34375 144.363281 42.25 144.710938 42.132812 C 145.0625 42.015625 145.351562 41.859375 145.582031 41.648438 L 145.582031 43.703125 Z M 161.308594 25.402344 L 155.820312 25.402344 L 155.820312 31.410156 L 152.496094 31.410156 L 152.496094 35.09375 L 155.820312 35.09375 L 155.820312 46.917969 C 155.820312 47.929688 155.988281 48.742188 156.324219 49.359375 C 156.660156 49.980469 157.117188 50.460938 157.695312 50.796875 C 158.277344 51.132812 158.945312 51.355469 159.710938 51.472656 C 160.46875 51.585938 161.273438 51.648438 162.125 51.648438 C 162.671875 51.648438 163.222656 51.632812 163.792969 51.609375 C 164.355469 51.585938 164.871094 51.535156 165.335938 51.457031 L 165.335938 47.1875 C 165.074219 47.242188 164.808594 47.285156 164.523438 47.308594 C 164.238281 47.332031 163.945312 47.347656 163.636719 47.347656 C 162.710938 47.347656 162.089844 47.191406 161.78125 46.882812 C 161.472656 46.570312 161.320312 45.953125 161.320312 45.019531 L 161.320312 35.09375 L 165.339844 35.09375 L 165.339844 31.410156 L 161.320312 31.410156 L 161.320312 25.402344 Z M 184 42.675781 C 183.640625 42.042969 183.164062 41.511719 182.570312 41.085938 C 181.976562 40.660156 181.300781 40.316406 180.539062 40.058594 C 179.78125 39.796875 179 39.582031 178.203125 39.398438 C 177.429688 39.21875 176.671875 39.050781 175.921875 38.894531 C 175.175781 38.738281 174.511719 38.5625 173.929688 38.371094 C 173.351562 38.179688 172.882812 37.925781 172.523438 37.617188 C 172.160156 37.304688 171.980469 36.910156 171.980469 36.414062 C 171.980469 36 172.082031 35.671875 172.289062 35.425781 C 172.492188 35.179688 172.75 34.992188 173.042969 34.859375 C 173.34375 34.730469 173.667969 34.648438 174.027344 34.609375 C 174.386719 34.570312 174.722656 34.554688 175.03125 34.554688 C 176.011719 34.554688 176.863281 34.742188 177.585938 35.113281 C 178.304688 35.488281 178.707031 36.203125 178.78125 37.265625 L 184.003906 37.265625 C 183.898438 36.023438 183.585938 34.996094 183.058594 34.179688 C 182.53125 33.367188 181.867188 32.714844 181.066406 32.222656 C 180.269531 31.730469 179.363281 31.382812 178.339844 31.175781 C 177.320312 30.96875 176.273438 30.863281 175.191406 30.863281 C 174.109375 30.863281 173.050781 30.960938 172.023438 31.152344 C 170.988281 31.347656 170.0625 31.683594 169.238281 32.160156 C 168.414062 32.640625 167.75 33.292969 167.246094 34.117188 C 166.742188 34.945312 166.492188 36.003906 166.492188 37.300781 C 166.492188 38.175781 166.671875 38.921875 167.035156 39.527344 C 167.394531 40.136719 167.875 40.636719 168.464844 41.039062 C 169.058594 41.4375 169.738281 41.765625 170.496094 42.007812 C 171.257812 42.257812 172.035156 42.46875 172.832031 42.652344 C 174.792969 43.0625 176.320312 43.476562 177.414062 43.890625 C 178.511719 44.304688 179.058594 44.925781 179.058594 45.75 C 179.058594 46.246094 178.941406 46.648438 178.710938 46.96875 C 178.476562 47.296875 178.1875 47.550781 177.839844 47.742188 C 177.492188 47.9375 177.101562 48.082031 176.679688 48.167969 C 176.253906 48.261719 175.84375 48.308594 175.457031 48.308594 C 174.917969 48.308594 174.394531 48.242188 173.894531 48.113281 C 173.390625 47.984375 172.945312 47.78125 172.558594 47.511719 C 172.171875 47.238281 171.855469 46.894531 171.609375 46.464844 C 171.367188 46.039062 171.242188 45.527344 171.242188 44.933594 L 166.023438 44.933594 C 166.078125 46.277344 166.378906 47.394531 166.933594 48.285156 C 167.488281 49.179688 168.195312 49.894531 169.058594 50.441406 C 169.921875 50.984375 170.90625 51.371094 172.015625 51.605469 C 173.125 51.835938 174.253906 51.953125 175.414062 51.953125 C 176.574219 51.953125 177.664062 51.84375 178.757812 51.625 C 179.851562 51.40625 180.828125 51.023438 181.675781 50.480469 C 182.527344 49.9375 183.214844 49.222656 183.746094 48.332031 C 184.273438 47.4375 184.535156 46.332031 184.535156 45.015625 C 184.535156 44.082031 184.355469 43.300781 183.992188 42.671875 Z M 194.902344 23.773438 L 184.464844 51.457031 L 190.570312 51.457031 L 192.734375 45.292969 L 203.058594 45.292969 L 205.144531 51.457031 L 211.449219 51.457031 L 201.125 23.773438 Z M 194.324219 40.757812 L 197.917969 30.601562 L 197.992188 30.601562 L 201.472656 40.757812 L 194.320312 40.757812 Z M 230.425781 34.128906 C 229.679688 33.144531 228.738281 32.359375 227.605469 31.761719 C 226.46875 31.167969 225.121094 30.871094 223.550781 30.871094 C 222.3125 30.871094 221.179688 31.117188 220.148438 31.605469 C 219.113281 32.101562 218.265625 32.886719 217.59375 33.972656 L 217.515625 33.972656 L 217.515625 31.410156 L 212.296875 31.410156 L 212.296875 58.472656 L 217.789062 58.472656 L 217.789062 48.972656 L 217.863281 48.972656 C 218.535156 49.957031 219.390625 50.699219 220.441406 51.199219 C 221.480469 51.703125 222.621094 51.957031 223.859375 51.957031 C 225.328125 51.957031 226.609375 51.667969 227.707031 51.101562 C 228.800781 50.535156 229.714844 49.769531 230.449219 48.816406 C 231.183594 47.859375 231.730469 46.761719 232.09375 45.519531 C 232.453125 44.277344 232.636719 42.984375 232.636719 41.640625 C 232.636719 40.21875 232.453125 38.855469 232.09375 37.550781 C 231.730469 36.25 231.179688 35.101562 230.429688 34.121094 L 230.425781 34.121094 Z M 226.910156 43.855469 C 226.753906 44.632812 226.488281 45.308594 226.117188 45.890625 C 225.742188 46.472656 225.253906 46.949219 224.644531 47.308594 C 224.042969 47.667969 223.285156 47.851562 222.386719 47.851562 C 221.484375 47.851562 220.765625 47.671875 220.148438 47.308594 C 219.53125 46.945312 219.03125 46.472656 218.65625 45.890625 C 218.28125 45.3125 218.015625 44.632812 217.847656 43.855469 C 217.679688 43.082031 217.597656 42.292969 217.597656 41.496094 C 217.597656 40.695312 217.675781 39.863281 217.828125 39.089844 C 217.980469 38.316406 218.246094 37.628906 218.621094 37.035156 C 218.992188 36.441406 219.484375 35.957031 220.089844 35.582031 C 220.695312 35.207031 221.449219 35.015625 222.351562 35.015625 C 223.25 35.015625 223.96875 35.207031 224.574219 35.582031 C 225.179688 35.957031 225.675781 36.445312 226.0625 37.054688 C 226.449219 37.664062 226.726562 38.355469 226.894531 39.128906 C 227.066406 39.90625 227.144531 40.695312 227.144531 41.496094 C 227.144531 42.296875 227.066406 43.085938 226.914062 43.859375 Z M 253.96875 37.558594 C 253.609375 36.253906 253.050781 35.105469 252.304688 34.128906 C 251.558594 33.148438 250.621094 32.359375 249.484375 31.761719 C 248.351562 31.167969 246.996094 30.871094 245.421875 30.871094 C 244.1875 30.871094 243.054688 31.117188 242.023438 31.605469 C 240.992188 32.101562 240.140625 32.886719 239.472656 33.972656 L 239.394531 33.972656 L 239.394531 31.410156 L 234.175781 31.410156 L 234.175781 58.472656 L 239.664062 58.472656 L 239.664062 48.972656 L 239.742188 48.972656 C 240.414062 49.957031 241.269531 50.699219 242.3125 51.199219 C 243.355469 51.703125 244.5 51.957031 245.734375 51.957031 C 247.203125 51.957031 248.480469 51.667969 249.578125 51.101562 C 250.671875 50.535156 251.589844 49.769531 252.324219 48.816406 C 253.0625 47.859375 253.605469 46.761719 253.964844 45.519531 C 254.328125 44.277344 254.507812 42.984375 254.507812 41.640625 C 254.507812 40.21875 254.328125 38.855469 253.964844 37.550781 Z M 248.785156 43.855469 C 248.632812 44.632812 248.367188 45.308594 247.996094 45.890625 C 247.621094 46.472656 247.132812 46.949219 246.527344 47.308594 C 245.921875 47.667969 245.167969 47.851562 244.265625 47.851562 C 243.359375 47.851562 242.640625 47.671875 242.019531 47.308594 C 241.398438 46.945312 240.90625 46.472656 240.53125 45.890625 C 240.160156 45.3125 239.886719 44.632812 239.71875 43.855469 C 239.554688 43.082031 239.46875 42.292969 239.46875 41.496094 C 239.46875 40.695312 239.546875 39.863281 239.703125 39.089844 C 239.859375 38.316406 240.121094 37.628906 240.496094 37.035156 C 240.867188 36.441406 241.359375 35.957031 241.964844 35.582031 C 242.566406 35.207031 243.324219 35.015625 244.226562 35.015625 C 245.132812 35.015625 245.84375 35.207031 246.449219 35.582031 C 247.054688 35.957031 247.550781 36.445312 247.9375 37.054688 C 248.324219 37.664062 248.601562 38.355469 248.769531 39.128906 C 248.9375 39.90625 249.019531 40.695312 249.019531 41.496094 C 249.019531 42.296875 248.941406 43.085938 248.785156 43.859375 Z M 248.785156 43.855469 " fill-opacity="1" fill-rule="nonzero"/></g></svg>